<?xml version="1.0" encoding="utf-8"?>
<svg xmlns="http://www.w3.org/2000/svg" viewBox="0 0 238.5 238.5">
  <title>bee</title>
  <path
    d="M178.46,304.46a30.86,30.86,0,0,1-15.78-4.34l-76-45.24A30.86,30.86,0,0,1,71.65,228l1.2-88.42a30.82,30.82,0,0,1,15.77-26.49l77.17-43.18a30.85,30.85,0,0,1,30.83.42l76,45.24a30.81,30.81,0,0,1,15.06,26.91l-1.19,88.41a30.86,30.86,0,0,1-15.78,26.5l-77.16,43.17A30.81,30.81,0,0,1,178.46,304.46Z"
    transform="translate(-60.27 -65.96)"
    style="fill: #a79993"
  />
  <path
    d="M178.28,296.88a28.91,28.91,0,0,1-14.77-4.06l-71.1-42.34A28.88,28.88,0,0,1,78.32,225.3l1.12-82.74a28.89,28.89,0,0,1,14.76-24.8l72.21-40.4a28.82,28.82,0,0,1,28.86.39l71.1,42.33a28.89,28.89,0,0,1,14.09,25.19L279.34,228a28.86,28.86,0,0,1-14.76,24.8l-72.21,40.4A28.75,28.75,0,0,1,178.28,296.88Z"
    transform="translate(-60.27 -65.96)"
    style="fill: #ccc6b8"
  />
  <g>
    <path
      d="M244.74,205H209.22c-2.67,6-5.64,12.08-8.86,17.83l-1.14,2h55.53c-.39-.68-.78-1.36-1.16-2.06C250.37,217.06,247.41,211,244.74,205Z"
      transform="translate(-60.27 -65.96)"
      style="fill: #745e55"
    />
    <path
      d="M201,134a26,26,0,0,0,4.54,14.74l1.7,2.48-1.39,2.66-.67,1.29h.56a15.34,15.34,0,0,1,11.33,5,15.54,15.54,0,0,1,4.2,12.05h11.41a15.56,15.56,0,0,1,4.21-12.14,15.22,15.22,0,0,1,11.8-5l-.57-1.08-1.44-2.68,1.72-2.51A26.06,26.06,0,0,0,253,134c0-7.39-5.3-12.11-15.75-14l-1.81-.34-2.57-.12c-1.64-.07-3.51-.07-5.89-.07s-4.24,0-6,.08l-2.31,0-1.91.36C206.3,121.9,201,126.62,201,134Z"
      transform="translate(-60.27 -65.96)"
      style="fill: #745e55"
    />
    <path
      d="M254.38,234.86H199.6a65.24,65.24,0,0,0,4.92,10.25h45A63.41,63.41,0,0,0,254.38,234.86Z"
      transform="translate(-60.27 -65.96)"
      style="fill: #745e55"
    />
    <path
      d="M248.47,255.11H205.58a93.86,93.86,0,0,0,21.27,18.7l3-1.69A94.08,94.08,0,0,0,248.47,255.11Z"
      transform="translate(-60.27 -65.96)"
      style="fill: #745e55"
    />
    <path
      d="M229.24,109.48a74.85,74.85,0,0,1,3.62-9.81L215.15,89.12a70.59,70.59,0,0,1,9.56,20.37C226.14,109.47,227.82,109.47,229.24,109.48Z"
      transform="translate(-60.27 -65.96)"
      style="fill: #745e55"
    />
    <path
      d="M280.25,182.93c-10.95-8-22.49-14.33-30.47-17.61l-.16-.06a6.74,6.74,0,0,0-1.45-.18,5.42,5.42,0,0,0-4,1.82,5.69,5.69,0,0,0-1.25,5.88c4.11,12.18,10.81,29.89,19.35,45.14,5.62,10,10.65,16.59,15,20.85a28.68,28.68,0,0,0,2.36-11Z"
      transform="translate(-60.27 -65.96)"
      style="fill: #745e55"
    />
    <path
      d="M265.17,247.73a77.52,77.52,0,0,1-3.8,6.76l3.52-2a30.43,30.43,0,0,0,3.1-2C267,249.63,266.11,248.71,265.17,247.73Z"
      transform="translate(-60.27 -65.96)"
      style="fill: #745e55"
    />
    <path
      d="M194.47,257.12a6.62,6.62,0,0,1-.61-.93,77.36,77.36,0,0,1-4.94-8.46c-6.37,6.71-12.94,11-19.59,12.69a27.59,27.59,0,0,1-6.91.89c-7.57,0-14.93-3.21-21.87-9.54-10.55-9.63-15-21.27-12.77-33.67,5.45-30.85,49.88-57.27,67.39-65.31l.5-1A36,36,0,0,1,191,134c0-10.82,6.69-18.83,18.56-22.55-3.29-9.44-10.23-21.83-19.51-25.4a6.15,6.15,0,0,0-.63-.2,7.53,7.53,0,0,1-8.15-12.43h-.46a28.85,28.85,0,0,0-14.09,3.67l-72.21,40.4a28.86,28.86,0,0,0-14.76,24.8L78.63,225A28.84,28.84,0,0,0,92.72,250.2l71.1,42.34a28.87,28.87,0,0,0,28.85.39l24.42-13.66A102,102,0,0,1,194.47,257.12Z"
      transform="translate(-60.27 -65.96)"
      style="fill: #745e55"
    />
    <path
      d="M266.67,119.8,246,107.48c-.58,1.37-1.1,2.72-1.55,4C256.3,115.2,263,123.21,263,134a36,36,0,0,1-4.71,17.83l.5,1A183.13,183.13,0,0,1,280.5,165l.27-20A28.9,28.9,0,0,0,266.67,119.8Z"
      transform="translate(-60.27 -65.96)"
      style="fill: #745e55"
    />
    <path
      d="M223.68,182.24c-1.52,4.34-3.12,8.61-4.78,12.78h16.15c-1.66-4.17-3.26-8.44-4.79-12.78Z"
      transform="translate(-60.27 -65.96)"
      style="fill: #745e55"
    />
    <path
      d="M142.6,220.83c-1.28,7.24,1.36,13.77,8.08,19.93,6.89,6.29,11.77,6,14.84,5.16h0c5.57-1.43,14.62-7.45,26.11-28,8.51-15.19,15.22-32.91,19.35-45.09a5.68,5.68,0,0,0-1.25-5.87,5.36,5.36,0,0,0-4-1.83,5.06,5.06,0,0,0-1.17.11l-.55.18C185.12,173.26,146.61,198.17,142.6,220.83Z"
      transform="translate(-60.27 -65.96)"
      style="fill: #745e55"
    />
  </g>
</svg>