<?xml version="1.0" encoding="utf-8"?>
<!-- Generator: Adobe Illustrator 28.0.0, SVG Export Plug-In . SVG Version: 6.00 Build 0)  -->
<svg version="1.1" id="Layer_1" focusable="false" xmlns="http://www.w3.org/2000/svg" xmlns:xlink="http://www.w3.org/1999/xlink"
	 x="0px" y="0px" viewBox="0 0 576 512" style="enable-background:new 0 0 576 512;" xml:space="preserve">
<path d="M441.5,39.8C432.9,25.1,417.1,16,400,16H176c-17.1,0-32.9,9.1-41.5,23.8l-112,192c-8.7,14.9-8.7,33.4,0,48.4l112,192
	c8.6,14.7,24.4,23.8,41.5,23.8h224c17.1,0,32.9-9.1,41.5-23.8l112-192c8.7-14.9,8.7-33.4,0-48.4L441.5,39.8L441.5,39.8z M400,448
	H176L64,256L176,64h224l112,192L400,448z"/>
</svg>
